<svg xmlns="http://www.w3.org/2000/svg" viewBox="0 0 64 64" width="64" height="64">
  <!-- Snow - Cloud with white/blue snowflakes -->
  <!-- Cloud -->
  <ellipse cx="32" cy="22" rx="14" ry="10" fill="#CCCCCC" stroke="#000000" stroke-width="1.5"/>
  <ellipse cx="42" cy="25" rx="10" ry="8" fill="#CCCCCC" stroke="#000000" stroke-width="1.5"/>
  <ellipse cx="22" cy="25" rx="8" ry="7" fill="#CCCCCC" stroke="#000000" stroke-width="1.5"/>
  <rect x="22" y="22" width="30" height="10" fill="#CCCCCC"/>

  <!-- Snowflakes (light blue) -->
  <!-- Snowflake 1 -->
  <line x1="24" y1="40" x2="24" y2="48" stroke="#ADD8E6" stroke-width="2" stroke-linecap="round"/>
  <line x1="20" y1="44" x2="28" y2="44" stroke="#ADD8E6" stroke-width="2" stroke-linecap="round"/>
  <line x1="21" y1="41" x2="27" y2="47" stroke="#ADD8E6" stroke-width="1.5" stroke-linecap="round"/>
  <line x1="27" y1="41" x2="21" y2="47" stroke="#ADD8E6" stroke-width="1.5" stroke-linecap="round"/>

  <!-- Snowflake 2 -->
  <line x1="40" y1="38" x2="40" y2="46" stroke="#ADD8E6" stroke-width="2" stroke-linecap="round"/>
  <line x1="36" y1="42" x2="44" y2="42" stroke="#ADD8E6" stroke-width="2" stroke-linecap="round"/>
  <line x1="37" y1="39" x2="43" y2="45" stroke="#ADD8E6" stroke-width="1.5" stroke-linecap="round"/>
  <line x1="43" y1="39" x2="37" y2="45" stroke="#ADD8E6" stroke-width="1.5" stroke-linecap="round"/>

  <!-- Snowflake 3 -->
  <circle cx="32" cy="52" r="1.5" fill="#ADD8E6" stroke="#000000" stroke-width="0.5"/>
  <line x1="32" y1="48" x2="32" y2="56" stroke="#ADD8E6" stroke-width="1.5" stroke-linecap="round"/>
  <line x1="28" y1="52" x2="36" y2="52" stroke="#ADD8E6" stroke-width="1.5" stroke-linecap="round"/>
</svg>
